<?xml version="1.0" encoding="UTF-8"?>
<svg id="Layer_1" xmlns="http://www.w3.org/2000/svg" version="1.1" viewBox="0 0 200 200">
  <!-- Generator: Adobe Illustrator 29.0.1, SVG Export Plug-In . SVG Version: 2.1.0 Build 192)  -->
  <defs>
    <style>
      .st0 {
        fill: #293331;
      }
    </style>
  </defs>
  <path class="st0" d="M0,105.84v-11.72c.16-1.41.32-2.81.48-4.22,2.39-21.51,10.61-40.49,25.11-56.58C40.99,16.24,60.06,5.57,82.76,1.56,86.52.89,90.33.51,94.12,0c3.91,0,7.81,0,11.72,0,.63.12,1.26.26,1.9.35,4.37.63,8.8.99,13.1,1.92,24.16,5.25,43.91,17.7,58.74,37.42,18.24,24.27,24.28,51.57,18.06,81.3-5,23.91-17.53,43.35-36.86,58.22-20.88,16.05-44.65,22.73-70.81,20.21-21.56-2.07-40.52-10.54-56.62-25.04-17.1-15.4-27.77-34.48-31.78-57.19-.66-3.76-1.04-7.57-1.55-11.35ZM47.58,165.35c27.05,22,63.43,22.79,87.01,10.76-3.42-20.68-9.29-40.67-16.84-60.33-28.55,9.45-51.35,26.6-70.17,49.57ZM16.1,96.54c-.46,21.78,6.01,40.84,19.91,57.62,10.08-12.31,21.4-22.99,34.19-32.07,12.77-9.06,26.52-16.24,41.61-21.14-2.96-6.28-5.79-12.29-8.64-18.33-14.22,4.82-28.43,8.18-42.9,10.41-14.54,2.24-29.17,3.43-44.17,3.51ZM66.22,23.34c-20.53,6.66-46.73,38.06-47.55,57.13,26.12-.56,51.73-4.21,76.68-12.23-3.56-8.04-24.07-39.62-29.13-44.9ZM165.09,47.16c-13.86,12.66-29.58,22.16-46.65,29.59,2.98,6.53,5.86,12.91,8.85,19.25.19.4,1.26.67,1.85.56,17.03-3.01,34.03-2.95,51.03.21,1.17.22,2.35.33,3.63.51-.8-18.9-7.01-35.43-18.71-50.12ZM111.38,62.3c15.35-6.49,29.74-15.04,42.34-26.49-14.96-15.25-53.96-24.98-70.49-17.89,9.32,14.68,18.67,29.42,28.16,44.37ZM149.4,167.76c18.21-13.96,29.37-31.71,33.4-54.1-16.32-3.65-32.55-4.47-49.16-1.63,6.85,18.24,12.1,36.56,15.76,55.74Z"/>
</svg>