<?xml version="1.0" encoding="UTF-8"?>
<svg id="Layer_1" xmlns="http://www.w3.org/2000/svg" version="1.1" viewBox="0 0 200 200">
  <!-- Generator: Adobe Illustrator 29.0.1, SVG Export Plug-In . SVG Version: 2.1.0 Build 192)  -->
  <defs>
    <style>
      .st0 {
        fill: #293331;
      }
      .st0:hover {
        fill: red;
      }
    </style>
  </defs>
  <path class="st0" d="M180.64,0H19.36C8.67,0,0,8.67,0,19.36v161.27c0,10.69,8.67,19.36,19.36,19.36h77.98c-.1-.3-.16-.61-.16-.95v-79.63h-19.34c-1.57,0-2.85-1.27-2.85-2.85v-28.94c0-1.57,1.27-2.85,2.85-2.85h20.31v-21.49c-.4-2.33-2.1-15.75,10.08-26.96,11-10.12,24.92-10.9,28.92-10.9.53,0,.89.01,1.06.02h23.08c1.57,0,2.85,1.27,2.85,2.85v26.91c0,1.57-1.27,2.85-2.85,2.85h-16.75c-5.88,0-8.87,2.81-8.87,8.35v18.38h25.61c.81,0,1.58.35,2.12.95.54.61.8,1.41.7,2.22l-3.38,29.32c-.17,1.44-1.38,2.52-2.83,2.52h-22.24v79.26c0,.33-.06.65-.16.95h45.13c10.69,0,19.36-8.67,19.36-19.36V19.36c0-10.69-8.67-19.36-19.36-19.36Z"/>
</svg>