<?xml version="1.0" encoding="UTF-8"?>
<svg id="Layer_1" xmlns="http://www.w3.org/2000/svg" version="1.1" viewBox="0 0 200 200">
  <!-- Generator: Adobe Illustrator 29.0.1, SVG Export Plug-In . SVG Version: 2.1.0 Build 192)  -->
  <defs>
    <style>
      .st0 {
        fill: #293331;
      }
    </style>
  </defs>
  <path class="st0" d="M200.03,51.21v97.63c-.33,2.04-.54,4.11-.99,6.13-5.09,22.65-18.8,37.18-41.19,43.39-2.92.81-5.97,1.1-8.97,1.64H51.27c-.63-.12-1.26-.28-1.89-.35-5.46-.6-10.81-1.81-15.77-4.16C12.13,185.34.55,168.34.22,144.56c-.41-29.67-.12-59.36-.09-89.04,0-9.61,2.12-18.78,7.01-27.07C18.16,9.77,34.67.21,56.36.09c29.15-.16,58.31-.07,87.46,0,3.75.01,7.6.21,11.24,1.01,22.64,5,37.11,18.77,43.33,41.11.81,2.92,1.11,5.99,1.64,8.99ZM182.31,100.22c0-14.51.01-29.02,0-43.53,0-4.57-.46-9.09-2.01-13.43-5.66-15.9-19.34-25.45-36.64-25.47-29.02-.03-58.04-.09-87.05.08-4.42.03-9.04.62-13.2,2.02-15.99,5.38-25.52,19.23-25.54,36.51-.04,29.09-.09,58.18.08,87.26.03,4.35.62,8.91,2,13.02,5.33,15.91,19.14,25.54,36.28,25.58,29.28.07,58.56.06,87.83,0,13.03-.02,23.56-5.24,31.29-15.78,4.98-6.8,7-14.55,6.99-22.91-.02-14.45,0-28.89,0-43.34Z"/>
  <path class="st0" d="M151.59,100.11c-.11,28.37-23.44,51.61-51.65,51.44-28.41-.17-51.61-23.51-51.39-51.71.23-28.38,23.33-51.39,51.55-51.35,28.33.04,51.59,23.36,51.48,51.61ZM100.14,66.27c-18.55-.09-33.72,15.02-33.81,33.69-.09,18.56,15.02,33.72,33.68,33.82,18.55.09,33.72-15.02,33.81-33.69.09-18.55-15.02-33.73-33.68-33.82Z"/>
  <path class="st0" d="M153.74,33.52c7.16,0,13.12,5.97,13.01,13.05-.11,7.1-5.94,12.87-13,12.87-7.14,0-13.11-5.99-13.02-13.06.1-7.11,5.91-12.86,13.01-12.86Z"/>
</svg>